<mxfile host="app.diagrams.net" modified="2024-03-26T21:53:31.082Z" agent="Mozilla/5.0 (Macintosh; Intel Mac OS X 10_15_7) AppleWebKit/537.36 (KHTML, like Gecko) Chrome/123.0.0.0 Safari/537.36" etag="zkcj--ZBTNJ47rMAoEzV" version="24.1.0" type="github">
  <diagram name="Page-1" id="32LRGrMIzgfswFj9tgB6">
    <mxGraphModel dx="1026" dy="685" grid="1" gridSize="10" guides="1" tooltips="1" connect="1" arrows="1" fold="1" page="1" pageScale="1" pageWidth="850" pageHeight="1100" math="0" shadow="0">
      <root>
        <mxCell id="0" />
        <mxCell id="1" parent="0" />
        <mxCell id="JqMjwpp5kxQNWlNTWgeX-1" value="" style="rounded=1;whiteSpace=wrap;html=1;" vertex="1" parent="1">
          <mxGeometry x="80" y="80" width="680" height="730" as="geometry" />
        </mxCell>
        <mxCell id="JqMjwpp5kxQNWlNTWgeX-4" value="" style="group" vertex="1" connectable="0" parent="1">
          <mxGeometry x="345" y="80" width="160" height="66" as="geometry" />
        </mxCell>
        <mxCell id="JqMjwpp5kxQNWlNTWgeX-2" value="&lt;b&gt;Domain Driven Design&lt;/b&gt;" style="text;html=1;align=center;verticalAlign=middle;whiteSpace=wrap;rounded=0;" vertex="1" parent="JqMjwpp5kxQNWlNTWgeX-4">
          <mxGeometry width="160" height="40" as="geometry" />
        </mxCell>
        <mxCell id="JqMjwpp5kxQNWlNTWgeX-3" value="Event Storming" style="text;html=1;align=center;verticalAlign=middle;whiteSpace=wrap;rounded=0;" vertex="1" parent="JqMjwpp5kxQNWlNTWgeX-4">
          <mxGeometry y="26" width="160" height="40" as="geometry" />
        </mxCell>
      </root>
    </mxGraphModel>
  </diagram>
</mxfile>
